<svg width="7" height="6" viewBox="0 0 7 6" fill="none" xmlns="http://www.w3.org/2000/svg">
<path d="M3.33829 2.96188L1.06313 5.23704C0.90588 5.39429 0.651598 5.39429 0.496017 5.23704L0.11794 4.85896C-0.0393134 4.70171 -0.0393134 4.44743 0.11794 4.29185L1.73062 2.67916L0.11794 1.06648C-0.0393134 0.909226 -0.0393134 0.654944 0.11794 0.499363L0.494345 0.11794C0.651598 -0.0393134 0.90588 -0.0393134 1.06146 0.11794L3.33662 2.3931C3.49554 2.55035 3.49554 2.80463 3.33829 2.96188ZM6.55027 2.3931L4.27512 0.11794C4.11786 -0.0393134 3.86358 -0.0393134 3.708 0.11794L3.32992 0.496017C3.17267 0.653271 3.17267 0.907553 3.32992 1.06313L4.94261 2.67582L3.32992 4.2885C3.17267 4.44575 3.17267 4.70004 3.32992 4.85562L3.708 5.23369C3.86526 5.39095 4.11954 5.39095 4.27512 5.23369L6.55027 2.95854C6.70753 2.80463 6.70753 2.55035 6.55027 2.3931Z" fill="#F46D16"/>
</svg>
