<svg width="10" height="8" viewBox="0 0 10 8" fill="none" xmlns="http://www.w3.org/2000/svg">
<path d="M9.66805 0H0.331948C0.148831 0 0 0.148961 0 0.332078V1.00013C0 1.03091 0.0333766 1.06623 0.0606494 1.08052L4.96792 3.88351C4.98065 3.89091 4.99494 3.89429 5.00922 3.89429C5.02377 3.89429 5.03844 3.89052 5.0513 3.88286L9.81026 1.08325C9.83701 1.06831 9.90792 1.02883 9.93455 1.01065C9.96675 0.988701 10 0.968831 10 0.929481V0.331948C10 0.148961 9.85117 0 9.66805 0Z" fill="white"/>
<path d="M9.95848 2.00733C9.93251 1.99227 9.90082 1.99292 9.87472 2.00785L7.1816 3.5924C7.16004 3.60486 7.14511 3.62694 7.14147 3.65188C7.13822 3.67668 7.14602 3.70201 7.16277 3.72032L9.85628 6.62383C9.87225 6.6411 9.89407 6.65032 9.91692 6.65032C9.92718 6.65032 9.93757 6.64837 9.94731 6.64473C9.97913 6.63214 9.99991 6.60162 9.99991 6.56733V2.07941C9.99991 2.04954 9.9842 2.02214 9.95848 2.00733Z" fill="white"/>
<path d="M6.40561 4.12463C6.37912 4.09593 6.33652 4.08957 6.30288 4.10931L5.2234 4.7445C5.09665 4.81905 4.93431 4.8197 4.80678 4.74723L3.85678 4.2045C3.82535 4.18671 3.78574 4.191 3.75925 4.21567L0.151714 7.56191C0.132493 7.57983 0.122882 7.60567 0.12574 7.63178C0.128597 7.65788 0.143791 7.68126 0.166519 7.69437C0.222623 7.72736 0.276779 7.74307 0.331843 7.74307H9.57249C9.60561 7.74307 9.63548 7.72346 9.64847 7.69307C9.66171 7.66295 9.65574 7.62775 9.63314 7.60359L6.40561 4.12463Z" fill="white"/>
<path d="M2.96545 3.81919C2.98494 3.80139 2.99468 3.77516 2.99182 3.74906C2.98896 3.72282 2.97338 3.69958 2.95052 3.68633L0.123766 2.07178C0.0985714 2.05724 0.0667532 2.0575 0.041039 2.0723C0.0155844 2.08711 0 2.11451 0 2.14399V6.38035C0 6.41321 0.0194805 6.44308 0.0496104 6.4562C0.0602597 6.461 0.0715584 6.46334 0.082987 6.46334C0.103377 6.46334 0.123766 6.45568 0.139351 6.44113L2.96545 3.81919Z" fill="white"/>
</svg>
