<svg width="12" height="12" viewBox="0 0 12 12" fill="none" xmlns="http://www.w3.org/2000/svg">
<path d="M10.9997 8.50178V10.0102C11.0003 10.1502 10.9716 10.2888 10.9155 10.4171C10.8594 10.5454 10.7771 10.6606 10.6739 10.7553C10.5707 10.8499 10.4489 10.922 10.3163 10.9669C10.1836 11.0117 10.0431 11.0284 9.90359 11.0158C8.3564 10.8477 6.87022 10.319 5.56445 9.47218C4.34961 8.70022 3.31963 7.67024 2.54767 6.4554C1.69793 5.1437 1.16912 3.65029 1.00408 2.09615C0.991516 1.95711 1.00804 1.81697 1.0526 1.68467C1.09716 1.55237 1.16878 1.43079 1.2629 1.32768C1.35703 1.22457 1.47158 1.14219 1.59929 1.08579C1.72699 1.02938 1.86504 1.00018 2.00465 1.00005H3.51304C3.75705 0.997647 3.99361 1.08406 4.17862 1.24317C4.36364 1.40228 4.48448 1.62324 4.51863 1.86486C4.5823 2.34758 4.70037 2.82155 4.87059 3.27772C4.93824 3.45768 4.95288 3.65327 4.91278 3.8413C4.87268 4.02932 4.77952 4.20192 4.64433 4.33862L4.00578 4.97717C4.72154 6.23595 5.76379 7.2782 7.02256 7.99396L7.66112 7.35541C7.79782 7.22022 7.97041 7.12706 8.15844 7.08696C8.34647 7.04686 8.54206 7.0615 8.72202 7.12915C9.17819 7.29937 9.65216 7.41744 10.1349 7.48111C10.3791 7.51556 10.6022 7.63858 10.7616 7.82678C10.9211 8.01497 11.0058 8.2552 10.9997 8.50178Z" fill="#F46D16" stroke="white" stroke-linecap="round" stroke-linejoin="round"/>
</svg>
