<svg width="17" height="17" viewBox="0 0 17 17" fill="none" xmlns="http://www.w3.org/2000/svg">
<path d="M14.1036 2.6248C12.6071 1.1248 10.6143 0.299805 8.49643 0.299805C4.125 0.299805 0.567857 3.85695 0.567857 8.22838C0.567857 9.62481 0.932143 10.9891 1.625 12.1927L0.5 16.2998L4.70357 15.1962C5.86071 15.8284 7.16429 16.1605 8.49286 16.1605H8.49643C12.8643 16.1605 16.5 12.6034 16.5 8.23195C16.5 6.11409 15.6 4.1248 14.1036 2.6248ZM8.49643 14.8248C7.31071 14.8248 6.15 14.5069 5.13929 13.9069L4.9 13.7641L2.40714 14.4177L3.07143 11.9855L2.91429 11.7355C2.25357 10.6855 1.90714 9.4748 1.90714 8.22838C1.90714 4.59623 4.86429 1.63909 8.5 1.63909C10.2607 1.63909 11.9143 2.3248 13.1571 3.57123C14.4 4.81766 15.1643 6.47123 15.1607 8.23195C15.1607 11.8677 12.1286 14.8248 8.49643 14.8248ZM12.1107 9.88909C11.9143 9.78909 10.9393 9.31052 10.7571 9.24623C10.575 9.17838 10.4429 9.14623 10.3107 9.34623C10.1786 9.54623 9.8 9.98909 9.68214 10.1248C9.56786 10.2569 9.45 10.2748 9.25357 10.1748C8.08929 9.59266 7.325 9.13552 6.55714 7.81766C6.35357 7.46766 6.76071 7.49266 7.13929 6.73552C7.20357 6.60338 7.17143 6.48909 7.12143 6.38909C7.07143 6.28909 6.675 5.31409 6.51071 4.91766C6.35 4.53195 6.18571 4.58552 6.06429 4.57838C5.95 4.57123 5.81786 4.57123 5.68571 4.57123C5.55357 4.57123 5.33929 4.62123 5.15714 4.81766C4.975 5.01766 4.46429 5.49623 4.46429 6.47123C4.46429 7.44623 5.175 8.38909 5.27143 8.52123C5.37143 8.65338 6.66786 10.6534 8.65714 11.5141C9.91429 12.0569 10.4071 12.1034 11.0357 12.0105C11.4179 11.9534 12.2071 11.5319 12.3714 11.0677C12.5357 10.6034 12.5357 10.2069 12.4857 10.1248C12.4393 10.0355 12.3071 9.98552 12.1107 9.88909Z" fill="white"/>
</svg>
